<svg id="kity_svg_6" xmlns="http://www.w3.org/2000/svg" xmlns:xlink="http://www.w3.org/1999/xlink" version="1.1" width="1155" height="271" style="background: rgb(251, 251, 251); visibility: visible;" viewBox="0 0 1155 271"><defs id="kity_defs_7"><linearGradient id="kity_linearGradient_17" x1="0" y1="0" x2="0" y2="1"><stop id="kity_stop_18" offset="0" stop-color="rgb(255, 255, 255)"></stop><stop id="kity_stop_19" offset="1" stop-color="rgb(204, 204, 204)"></stop></linearGradient><marker id="kity_marker_2" orient="auto" refX="6" refY="0" viewBox="-7 -7 14 14" markerWidth="7" markerHeight="7" markerUnits="userSpaceOnUse"><path id="kity_path_3" fill="rgb(115, 161, 191)" stroke="none" d="M6,0A6,6,0,1,1,-6,0A6,6,0,1,1,6,0"></path></marker></defs><g id="kity_g_8"><g id="minder1" text-rendering="optimize-speed"><g id="minder_connect_group1"><path id="kity_path_31" fill="none" stroke="rgb(115, 161, 191)" stroke-width="1" d="M76.5,139.5A111,82,0,0,1,187.5,57.5"></path><path id="kity_path_33" fill="none" stroke="rgb(115, 161, 191)" stroke-width="1" d="M286.5,57.5C306.5,57.5,306.5,31.5,326.5,31.5"></path><path id="kity_path_35" fill="none" stroke="rgb(115, 161, 191)" stroke-width="1" d="M420.5,31.5C440.5,31.5,440.5,31.5,460.5,31.5"></path><path id="kity_path_37" fill="none" stroke="rgb(115, 161, 191)" stroke-width="1" d="M286.5,57.5C306.5,57.5,306.5,83.5,326.5,83.5"></path><path id="kity_path_39" fill="none" stroke="rgb(115, 161, 191)" stroke-width="1" d="M419.5,83.5C439.5,83.5,439.5,83.5,459.5,83.5"></path><path id="kity_path_41" fill="none" stroke="rgb(115, 161, 191)" stroke-width="1" d="M76.5,139.5A109,62,0,0,0,185.5,201.5"></path><path id="kity_path_43" fill="none" stroke="rgb(115, 161, 191)" stroke-width="1" d="M284.5,201.5C304.5,201.5,304.5,162.5,324.5,162.5"></path><path id="kity_path_45" fill="none" stroke="rgb(115, 161, 191)" stroke-width="1" d="M394.5,162.5C414.5,162.5,414.5,162.5,434.5,162.5"></path><path id="kity_path_47" fill="none" stroke="rgb(115, 161, 191)" stroke-width="1" d="M722.5,162.5C742.5,162.5,742.5,136.5,762.5,136.5"></path><path id="kity_path_49" fill="none" stroke="rgb(115, 161, 191)" stroke-width="1" d="M831.5,136.5C851.5,136.5,851.5,136.5,871.5,136.5"></path><path id="kity_path_51" fill="none" stroke="rgb(115, 161, 191)" stroke-width="1" d="M722.5,162.5C742.5,162.5,742.5,188.5,762.5,188.5"></path><path id="kity_path_53" fill="none" stroke="rgb(115, 161, 191)" stroke-width="1" d="M831.5,188.5C851.5,188.5,851.5,188.5,871.5,188.5"></path><path id="kity_path_55" fill="none" stroke="rgb(115, 161, 191)" stroke-width="1" d="M284.5,201.5C304.5,201.5,304.5,240.5,324.5,240.5"></path><path id="kity_path_57" fill="none" stroke="rgb(115, 161, 191)" stroke-width="1" d="M413.5,240.5C433.5,240.5,433.5,240.5,453.5,240.5"></path></g><g id="minder_node1"><path id="node_outline1" fill="rgb(115, 161, 191)" stroke="rgb(115, 161, 191)" d="M25.5,119.5h102a5,5,0,0,1,5,5v30a5,5,0,0,1,-5,5h-102a5,5,0,0,1,-5,-5v-30a5,5,0,0,1,5,-5z" stroke-width="3"></path><g id="node_text1" fill="white"><text id="kity_text_22" text-rendering="inherit" font-size="16" dy=".8em" y="129.09999990463257" x="44.5">垂直居中</text></g></g><g id="kity_g_12"><path id="kity_path_13" fill="none" stroke="none" d="M44.5,139.5h0v0h0z"></path></g><g id="kity_g_14"><path id="kity_path_15" fill="none" stroke="none" d="M44.5,139.5h0v0h0z"></path><path id="kity_path_16" fill="none" stroke="none"></path></g><g id="minder_node2"><g id="node_expander5" style="cursor: pointer;"><path id="kity_path_114" fill="white" stroke="gray" d="M188.5,57.5A6,6,0,1,1,176.5,57.5A6,6,0,1,1,188.5,57.5"></path><path id="kity_path_115" fill="none" stroke="gray" d="M178,57.5L187,57.5"></path></g><path id="node_outline6" fill="rgb(238, 243, 246)" stroke="rgb(115, 161, 191)" d="M192.5,44.5h91a3,3,0,0,1,3,3v20a3,3,0,0,1,-3,3h-91a3,3,0,0,1,-3,-3v-20a3,3,0,0,1,3,-3z" stroke-width="1"></path><g id="node_text6" fill="black"><text id="kity_text_67" text-rendering="inherit" font-size="14" dy=".8em" y="48.40000009536743" x="209.5">行内元素</text></g></g><g id="minder_node3"><g id="node_expander2" style="cursor: pointer;"><path id="kity_path_105" fill="white" stroke="gray" d="M326.5,31.5A6,6,0,1,1,314.5,31.5A6,6,0,1,1,326.5,31.5"></path><path id="kity_path_106" fill="none" stroke="gray" d="M316,31.5L325,31.5"></path></g><path id="node_outline3" fill="none" stroke="none" d="M331.5,20.5h84a5,5,0,0,1,5,5v12a5,5,0,0,1,-5,5h-84a5,5,0,0,1,-5,-5v-12a5,5,0,0,1,5,-5z"></path><g id="node_text3" fill="black"><text id="kity_text_61" text-rendering="inherit" font-size="12" dy=".8em" y="23.700000047683716" x="336.5">单行行内元素</text></g></g><g id="minder_node4"><g id="node_expander1" display="none" style="cursor: pointer;"><path id="kity_path_102" fill="white" stroke="gray" d="M460.5,31.5A6,6,0,1,1,448.5,31.5A6,6,0,1,1,460.5,31.5"></path><path id="kity_path_103" fill="none" stroke="gray"></path></g><path id="node_outline2" fill="none" stroke="none" d="M465.5,20.5h234a5,5,0,0,1,5,5v12a5,5,0,0,1,-5,5h-234a5,5,0,0,1,-5,-5v-12a5,5,0,0,1,5,-5z"></path><g id="node_text2" fill="black"><text id="kity_text_59" text-rendering="inherit" font-size="12" dy=".8em" y="23.700000047683716" x="470.5">元素的line-height设置为父元素的height;</text></g></g><g id="minder_node5"><g id="node_expander4" style="cursor: pointer;"><path id="kity_path_111" fill="white" stroke="gray" d="M326.5,83.5A6,6,0,1,1,314.5,83.5A6,6,0,1,1,326.5,83.5"></path><path id="kity_path_112" fill="none" stroke="gray" d="M316,83.5L325,83.5"></path></g><path id="node_outline5" fill="none" stroke="none" d="M331.5,72.5h83a5,5,0,0,1,5,5v12a5,5,0,0,1,-5,5h-83a5,5,0,0,1,-5,-5v-12a5,5,0,0,1,5,-5z"></path><g id="node_text5" fill="black"><text id="kity_text_65" text-rendering="inherit" font-size="12" dy=".8em" y="75.70000004768372" x="336.5">多行行内元素</text></g></g><g id="minder_node6"><g id="node_expander3" display="none" style="cursor: pointer;"><path id="kity_path_108" fill="white" stroke="gray" d="M459.5,83.5A6,6,0,1,1,447.5,83.5A6,6,0,1,1,459.5,83.5"></path><path id="kity_path_109" fill="none" stroke="gray"></path></g><path id="node_outline4" fill="none" stroke="none" d="M464.5,72.5h273a5,5,0,0,1,5,5v12a5,5,0,0,1,-5,5h-273a5,5,0,0,1,-5,-5v-12a5,5,0,0,1,5,-5z"></path><g id="node_text4" fill="black"><text id="kity_text_63" text-rendering="inherit" font-size="12" dy=".8em" y="75.70000004768372" x="469.5">父元素 display:table-cell; vertical-align:middle;</text></g></g><g id="minder_node7"><g id="node_expander14" style="cursor: pointer;"><path id="kity_path_141" fill="white" stroke="gray" d="M186.5,201.5A6,6,0,1,1,174.5,201.5A6,6,0,1,1,186.5,201.5"></path><path id="kity_path_142" fill="none" stroke="gray" d="M176,201.5L185,201.5"></path></g><path id="node_outline15" fill="rgb(238, 243, 246)" stroke="rgb(115, 161, 191)" d="M190.5,188.5h91a3,3,0,0,1,3,3v20a3,3,0,0,1,-3,3h-91a3,3,0,0,1,-3,-3v-20a3,3,0,0,1,3,-3z" stroke-width="1"></path><g id="node_text15" fill="black"><text id="kity_text_86" text-rendering="inherit" font-size="14" dy=".8em" y="192.40000009536743" x="207.5">块级元素</text></g></g><g id="minder_node8"><g id="node_expander11" style="cursor: pointer;"><path id="kity_path_132" fill="white" stroke="gray" d="M324.5,162.5A6,6,0,1,1,312.5,162.5A6,6,0,1,1,324.5,162.5"></path><path id="kity_path_133" fill="none" stroke="gray" d="M314,162.5L323,162.5"></path></g><path id="node_outline12" fill="none" stroke="none" d="M329.5,151.5h60a5,5,0,0,1,5,5v12a5,5,0,0,1,-5,5h-60a5,5,0,0,1,-5,-5v-12a5,5,0,0,1,5,-5z"></path><g id="node_text12" fill="black"><text id="kity_text_80" text-rendering="inherit" font-size="12" dy=".8em" y="154.70000004768372" x="334.5">使用定位</text></g></g><g id="minder_node9"><g id="node_expander10" style="cursor: pointer;"><path id="kity_path_129" fill="white" stroke="gray" d="M434.5,162.5A6,6,0,1,1,422.5,162.5A6,6,0,1,1,434.5,162.5"></path><path id="kity_path_130" fill="none" stroke="gray" d="M424,162.5L433,162.5"></path></g><path id="node_outline11" fill="none" stroke="none" d="M439.5,142.5h278a5,5,0,0,1,5,5v30a5,5,0,0,1,-5,5h-278a5,5,0,0,1,-5,-5v-30a5,5,0,0,1,5,-5z"></path><g id="node_text11" fill="black"><text id="kity_text_77" text-rendering="inherit" font-size="12" dy=".8em" y="145.70000004768372" x="444.5">父元素设置相对定位 position:relative;</text><text id="kity_text_78" text-rendering="inherit" font-size="12" dy=".8em" y="163.70000004768372" x="444.5">子元素设置绝对定位 position:absolute; top:50%;</text></g></g><g id="minder_node10"><g id="node_expander7" style="cursor: pointer;"><path id="kity_path_120" fill="white" stroke="gray" d="M762.5,136.5A6,6,0,1,1,750.5,136.5A6,6,0,1,1,762.5,136.5"></path><path id="kity_path_121" fill="none" stroke="gray" d="M752,136.5L761,136.5"></path></g><path id="node_outline8" fill="none" stroke="none" d="M767.5,125.5h59a5,5,0,0,1,5,5v12a5,5,0,0,1,-5,5h-59a5,5,0,0,1,-5,-5v-12a5,5,0,0,1,5,-5z"></path><g id="node_text8" fill="black"><text id="kity_text_71" text-rendering="inherit" font-size="12" dy=".8em" y="128.70000004768372" x="772.5">高度已知</text></g></g><g id="minder_node11"><g id="node_expander6" display="none" style="cursor: pointer;"><path id="kity_path_117" fill="white" stroke="gray" d="M871.5,136.5A6,6,0,1,1,859.5,136.5A6,6,0,1,1,871.5,136.5"></path><path id="kity_path_118" fill="none" stroke="gray"></path></g><path id="node_outline7" fill="none" stroke="none" d="M876.5,125.5h254a5,5,0,0,1,5,5v12a5,5,0,0,1,-5,5h-254a5,5,0,0,1,-5,-5v-12a5,5,0,0,1,5,-5z"></path><g id="node_text7" fill="black"><text id="kity_text_69" text-rendering="inherit" font-size="12" dy=".8em" y="128.70000004768372" x="881.5">子元素 margin-top: - 自身元素高度的一半px</text></g></g><g id="minder_node12"><g id="node_expander9" style="cursor: pointer;"><path id="kity_path_126" fill="white" stroke="gray" d="M762.5,188.5A6,6,0,1,1,750.5,188.5A6,6,0,1,1,762.5,188.5"></path><path id="kity_path_127" fill="none" stroke="gray" d="M752,188.5L761,188.5"></path></g><path id="node_outline10" fill="none" stroke="none" d="M767.5,177.5h59a5,5,0,0,1,5,5v12a5,5,0,0,1,-5,5h-59a5,5,0,0,1,-5,-5v-12a5,5,0,0,1,5,-5z"></path><g id="node_text10" fill="black"><text id="kity_text_75" text-rendering="inherit" font-size="12" dy=".8em" y="180.70000004768372" x="772.5">高度未知</text></g></g><g id="minder_node13"><g id="node_expander8" display="none" style="cursor: pointer;"><path id="kity_path_123" fill="white" stroke="gray" d="M871.5,188.5A6,6,0,1,1,859.5,188.5A6,6,0,1,1,871.5,188.5"></path><path id="kity_path_124" fill="none" stroke="gray"></path></g><path id="node_outline9" fill="none" stroke="none" d="M876.5,177.5h205a5,5,0,0,1,5,5v12a5,5,0,0,1,-5,5h-205a5,5,0,0,1,-5,-5v-12a5,5,0,0,1,5,-5z"></path><g id="node_text9" fill="black"><text id="kity_text_73" text-rendering="inherit" font-size="12" dy=".8em" y="180.70000004768372" x="881.5">子元素 transform:translateY(-50%)</text></g></g><g id="minder_node14"><g id="node_expander13" style="cursor: pointer;"><path id="kity_path_138" fill="white" stroke="gray" d="M324.5,240.5A6,6,0,1,1,312.5,240.5A6,6,0,1,1,324.5,240.5"></path><path id="kity_path_139" fill="none" stroke="gray" d="M314,240.5L323,240.5"></path></g><path id="node_outline14" fill="none" stroke="none" d="M329.5,229.5h79a5,5,0,0,1,5,5v12a5,5,0,0,1,-5,5h-79a5,5,0,0,1,-5,-5v-12a5,5,0,0,1,5,-5z"></path><g id="node_text14" fill="black"><text id="kity_text_84" text-rendering="inherit" font-size="12" dy=".8em" y="232.70000004768372" x="334.5">使用flex布局</text></g></g><g id="minder_node15"><g id="node_expander12" display="none" style="cursor: pointer;"><path id="kity_path_135" fill="white" stroke="gray" d="M453.5,240.5A6,6,0,1,1,441.5,240.5A6,6,0,1,1,453.5,240.5"></path><path id="kity_path_136" fill="none" stroke="gray"></path></g><path id="node_outline13" fill="none" stroke="none" d="M458.5,229.5h251a5,5,0,0,1,5,5v12a5,5,0,0,1,-5,5h-251a5,5,0,0,1,-5,-5v-12a5,5,0,0,1,5,-5z"></path><g id="node_text13" fill="black"><text id="kity_text_82" text-rendering="inherit" font-size="12" dy=".8em" y="232.70000004768372" x="463.5">父元素设置 display:flex; align-items:center;</text></g></g></g></g></svg>