<svg id="kity_svg_6" xmlns="http://www.w3.org/2000/svg" xmlns:xlink="http://www.w3.org/1999/xlink" version="1.1" width="1023" height="378" style="background: rgb(251, 251, 251); visibility: visible;" viewBox="0 0 1023 378"><defs id="kity_defs_7"><linearGradient id="kity_linearGradient_17" x1="0" y1="0" x2="0" y2="1"><stop id="kity_stop_18" offset="0" stop-color="rgb(255, 255, 255)"></stop><stop id="kity_stop_19" offset="1" stop-color="rgb(204, 204, 204)"></stop></linearGradient><marker id="kity_marker_2" orient="auto" refX="6" refY="0" viewBox="-7 -7 14 14" markerWidth="7" markerHeight="7" markerUnits="userSpaceOnUse"><path id="kity_path_3" fill="rgb(115, 161, 191)" stroke="none" d="M6,0A6,6,0,1,1,-6,0A6,6,0,1,1,6,0"></path></marker></defs><g id="kity_g_8"><g id="minder1" text-rendering="optimize-speed"><g id="minder_connect_group1"><path id="kity_path_31" fill="none" stroke="rgb(115, 161, 191)" stroke-width="1" d="M92.5,210.5A130,101,0,0,1,222.5,109.5"></path><path id="kity_path_33" fill="none" stroke="rgb(115, 161, 191)" stroke-width="1" d="M321.5,109.5C341.5,109.5,341.5,57.5,361.5,57.5"></path><path id="kity_path_35" fill="none" stroke="rgb(115, 161, 191)" stroke-width="1" d="M464.5,57.5C484.5,57.5,484.5,31.5,504.5,31.5"></path><path id="kity_path_37" fill="none" stroke="rgb(115, 161, 191)" stroke-width="1" d="M464.5,57.5C484.5,57.5,484.5,83.5,504.5,83.5"></path><path id="kity_path_39" fill="none" stroke="rgb(115, 161, 191)" stroke-width="1" d="M321.5,109.5C341.5,109.5,341.5,161.5,361.5,161.5"></path><path id="kity_path_41" fill="none" stroke="rgb(115, 161, 191)" stroke-width="1" d="M470.5,161.5C490.5,161.5,490.5,135.5,510.5,135.5"></path><path id="kity_path_43" fill="none" stroke="rgb(115, 161, 191)" stroke-width="1" d="M470.5,161.5C490.5,161.5,490.5,187.5,510.5,187.5"></path><path id="kity_path_45" fill="none" stroke="rgb(115, 161, 191)" stroke-width="1" d="M92.5,210.5A126,98,0,0,0,218.5,308.5"></path><path id="kity_path_47" fill="none" stroke="rgb(115, 161, 191)" stroke-width="1" d="M318.5,308.5C338.5,308.5,338.5,269.5,358.5,269.5"></path><path id="kity_path_49" fill="none" stroke="rgb(115, 161, 191)" stroke-width="1" d="M461.5,269.5C481.5,269.5,481.5,243.5,501.5,243.5"></path><path id="kity_path_51" fill="none" stroke="rgb(115, 161, 191)" stroke-width="1" d="M461.5,269.5C481.5,269.5,481.5,295.5,501.5,295.5"></path><path id="kity_path_53" fill="none" stroke="rgb(115, 161, 191)" stroke-width="1" d="M318.5,308.5C338.5,308.5,338.5,347.5,358.5,347.5"></path><path id="kity_path_55" fill="none" stroke="rgb(115, 161, 191)" stroke-width="1" d="M422.5,347.5C442.5,347.5,442.5,347.5,462.5,347.5"></path></g><g id="minder_node1"><path id="node_outline1" fill="rgb(115, 161, 191)" stroke="rgb(115, 161, 191)" d="M25.5,190.5h134a5,5,0,0,1,5,5v30a5,5,0,0,1,-5,5h-134a5,5,0,0,1,-5,-5v-30a5,5,0,0,1,5,-5z" stroke-width="3"></path><g id="node_text1" fill="white"><text id="kity_text_22" text-rendering="inherit" font-size="16" dy=".8em" y="200.09999990463257" x="44.5">垂直水平居中</text></g></g><g id="kity_g_12"><path id="kity_path_13" fill="none" stroke="none" d="M44.5,210.5h0v0h0z"></path></g><g id="kity_g_14"><path id="kity_path_15" fill="none" stroke="none" d="M44.5,210.5h0v0h0z"></path><path id="kity_path_16" fill="none" stroke="none"></path></g><g id="minder_node2"><g id="node_expander7" style="cursor: pointer;"><path id="kity_path_114" fill="white" stroke="gray" d="M223.5,109.5A6,6,0,1,1,211.5,109.5A6,6,0,1,1,223.5,109.5"></path><path id="kity_path_115" fill="none" stroke="gray" d="M213,109.5L222,109.5"></path></g><path id="node_outline8" fill="rgb(238, 243, 246)" stroke="rgb(115, 161, 191)" d="M227.5,96.5h91a3,3,0,0,1,3,3v20a3,3,0,0,1,-3,3h-91a3,3,0,0,1,-3,-3v-20a3,3,0,0,1,3,-3z" stroke-width="1"></path><g id="node_text8" fill="black"><text id="kity_text_69" text-rendering="inherit" font-size="14" dy=".8em" y="100.40000009536743" x="244.5">已知宽高</text></g></g><g id="minder_node3"><g id="node_expander3" style="cursor: pointer;"><path id="kity_path_102" fill="white" stroke="gray" d="M361.5,57.5A6,6,0,1,1,349.5,57.5A6,6,0,1,1,361.5,57.5"></path><path id="kity_path_103" fill="none" stroke="gray" d="M351,57.5L360,57.5"></path></g><path id="node_outline4" fill="none" stroke="none" d="M366.5,46.5h93a5,5,0,0,1,5,5v12a5,5,0,0,1,-5,5h-93a5,5,0,0,1,-5,-5v-12a5,5,0,0,1,5,-5z"></path><g id="node_text4" fill="black"><text id="kity_text_61" text-rendering="inherit" font-size="12" dy=".8em" y="49.700000047683716" x="371.5">定位+左上50%</text></g></g><g id="minder_node4"><g id="node_expander1" display="none" style="cursor: pointer;"><path id="kity_path_96" fill="white" stroke="gray" d="M504.5,31.5A6,6,0,1,1,492.5,31.5A6,6,0,1,1,504.5,31.5"></path><path id="kity_path_97" fill="none" stroke="gray"></path></g><path id="node_outline2" fill="none" stroke="none" d="M509.5,20.5h145a5,5,0,0,1,5,5v12a5,5,0,0,1,-5,5h-145a5,5,0,0,1,-5,-5v-12a5,5,0,0,1,5,-5z"></path><g id="node_text2" fill="black"><text id="kity_text_57" text-rendering="inherit" font-size="12" dy=".8em" y="23.700000047683716" x="514.5">父元素 position:relative;</text></g></g><g id="minder_node5"><g id="node_expander2" display="none" style="cursor: pointer;"><path id="kity_path_99" fill="white" stroke="gray" d="M504.5,83.5A6,6,0,1,1,492.5,83.5A6,6,0,1,1,504.5,83.5"></path><path id="kity_path_100" fill="none" stroke="gray"></path></g><path id="node_outline3" fill="none" stroke="none" d="M509.5,72.5h489a5,5,0,0,1,5,5v12a5,5,0,0,1,-5,5h-489a5,5,0,0,1,-5,-5v-12a5,5,0,0,1,5,-5z"></path><g id="node_text3" fill="black"><text id="kity_text_59" text-rendering="inherit" font-size="12" dy=".8em" y="75.70000004768372" x="514.5">子元素&#xa0;position:absolute;top:50%; left:50%\nmargin:-自身高度一半 0 0 -自身宽度一半</text></g></g><g id="minder_node6"><g id="node_expander6" style="cursor: pointer;"><path id="kity_path_111" fill="white" stroke="gray" d="M361.5,161.5A6,6,0,1,1,349.5,161.5A6,6,0,1,1,361.5,161.5"></path><path id="kity_path_112" fill="none" stroke="gray" d="M351,161.5L360,161.5"></path></g><path id="node_outline7" fill="none" stroke="none" d="M366.5,150.5h99a5,5,0,0,1,5,5v12a5,5,0,0,1,-5,5h-99a5,5,0,0,1,-5,-5v-12a5,5,0,0,1,5,-5z"></path><g id="node_text7" fill="black"><text id="kity_text_67" text-rendering="inherit" font-size="12" dy=".8em" y="153.70000004768372" x="371.5">定位+上右下左0</text></g></g><g id="minder_node7"><g id="node_expander4" display="none" style="cursor: pointer;"><path id="kity_path_105" fill="white" stroke="gray" d="M510.5,135.5A6,6,0,1,1,498.5,135.5A6,6,0,1,1,510.5,135.5"></path><path id="kity_path_106" fill="none" stroke="gray"></path></g><path id="node_outline5" fill="none" stroke="none" d="M515.5,124.5h146a5,5,0,0,1,5,5v12a5,5,0,0,1,-5,5h-146a5,5,0,0,1,-5,-5v-12a5,5,0,0,1,5,-5z"></path><g id="node_text5" fill="black"><text id="kity_text_63" text-rendering="inherit" font-size="12" dy=".8em" y="127.70000004768372" x="520.5">父元素 poaition:relative;</text></g></g><g id="minder_node8"><g id="node_expander5" display="none" style="cursor: pointer;"><path id="kity_path_108" fill="white" stroke="gray" d="M510.5,187.5A6,6,0,1,1,498.5,187.5A6,6,0,1,1,510.5,187.5"></path><path id="kity_path_109" fill="none" stroke="gray"></path></g><path id="node_outline6" fill="none" stroke="none" d="M515.5,176.5h412a5,5,0,0,1,5,5v12a5,5,0,0,1,-5,5h-412a5,5,0,0,1,-5,-5v-12a5,5,0,0,1,5,-5z"></path><g id="node_text6" fill="black"><text id="kity_text_65" text-rendering="inherit" font-size="12" dy=".8em" y="179.70000004768372" x="520.5">子元素 position:absolute;top:0; \nright:0; bottom:0; left:0; margin:auto;</text></g></g><g id="minder_node9"><g id="node_expander13" style="cursor: pointer;"><path id="kity_path_132" fill="white" stroke="gray" d="M219.5,308.5A6,6,0,1,1,207.5,308.5A6,6,0,1,1,219.5,308.5"></path><path id="kity_path_133" fill="none" stroke="gray" d="M209,308.5L218,308.5"></path></g><path id="node_outline14" fill="rgb(238, 243, 246)" stroke="rgb(115, 161, 191)" d="M223.5,295.5h92a3,3,0,0,1,3,3v20a3,3,0,0,1,-3,3h-92a3,3,0,0,1,-3,-3v-20a3,3,0,0,1,3,-3z" stroke-width="1"></path><g id="node_text14" fill="black"><text id="kity_text_81" text-rendering="inherit" font-size="14" dy=".8em" y="299.40000009536743" x="240.5">未知宽高</text></g></g><g id="minder_node10"><g id="node_expander10" style="cursor: pointer;"><path id="kity_path_123" fill="white" stroke="gray" d="M358.5,269.5A6,6,0,1,1,346.5,269.5A6,6,0,1,1,358.5,269.5"></path><path id="kity_path_124" fill="none" stroke="gray" d="M348,269.5L357,269.5"></path></g><path id="node_outline11" fill="none" stroke="none" d="M363.5,258.5h93a5,5,0,0,1,5,5v12a5,5,0,0,1,-5,5h-93a5,5,0,0,1,-5,-5v-12a5,5,0,0,1,5,-5z"></path><g id="node_text11" fill="black"><text id="kity_text_75" text-rendering="inherit" font-size="12" dy=".8em" y="261.7000000476837" x="368.5">定位+左上50%</text></g></g><g id="minder_node11"><g id="node_expander8" display="none" style="cursor: pointer;"><path id="kity_path_117" fill="white" stroke="gray" d="M501.5,243.5A6,6,0,1,1,489.5,243.5A6,6,0,1,1,501.5,243.5"></path><path id="kity_path_118" fill="none" stroke="gray"></path></g><path id="node_outline9" fill="none" stroke="none" d="M506.5,232.5h145a5,5,0,0,1,5,5v12a5,5,0,0,1,-5,5h-145a5,5,0,0,1,-5,-5v-12a5,5,0,0,1,5,-5z"></path><g id="node_text9" fill="black"><text id="kity_text_71" text-rendering="inherit" font-size="12" dy=".8em" y="235.70000004768372" x="511.5">父元素 position:relative;</text></g></g><g id="minder_node12"><g id="node_expander9" display="none" style="cursor: pointer;"><path id="kity_path_120" fill="white" stroke="gray" d="M501.5,295.5A6,6,0,1,1,489.5,295.5A6,6,0,1,1,501.5,295.5"></path><path id="kity_path_121" fill="none" stroke="gray"></path></g><path id="node_outline10" fill="none" stroke="none" d="M506.5,284.5h448a5,5,0,0,1,5,5v12a5,5,0,0,1,-5,5h-448a5,5,0,0,1,-5,-5v-12a5,5,0,0,1,5,-5z"></path><g id="node_text10" fill="black"><text id="kity_text_73" text-rendering="inherit" font-size="12" dy=".8em" y="287.7000000476837" x="511.5">子元素&#xa0;position:absolute;top:50%; left:50%\ntransform:translate(-50%,-50%);</text></g></g><g id="minder_node13"><g id="node_expander12" style="cursor: pointer;"><path id="kity_path_129" fill="white" stroke="gray" d="M358.5,347.5A6,6,0,1,1,346.5,347.5A6,6,0,1,1,358.5,347.5"></path><path id="kity_path_130" fill="none" stroke="gray" d="M348,347.5L357,347.5"></path></g><path id="node_outline13" fill="none" stroke="none" d="M363.5,336.5h54a5,5,0,0,1,5,5v12a5,5,0,0,1,-5,5h-54a5,5,0,0,1,-5,-5v-12a5,5,0,0,1,5,-5z"></path><g id="node_text13" fill="black"><text id="kity_text_79" text-rendering="inherit" font-size="12" dy=".8em" y="339.7000000476837" x="368.5">flex布局</text></g></g><g id="minder_node14"><g id="node_expander11" display="none" style="cursor: pointer;"><path id="kity_path_126" fill="white" stroke="gray" d="M462.5,347.5A6,6,0,1,1,450.5,347.5A6,6,0,1,1,462.5,347.5"></path><path id="kity_path_127" fill="none" stroke="gray"></path></g><path id="node_outline12" fill="none" stroke="none" d="M467.5,336.5h361a5,5,0,0,1,5,5v12a5,5,0,0,1,-5,5h-361a5,5,0,0,1,-5,-5v-12a5,5,0,0,1,5,-5z"></path><g id="node_text12" fill="black"><text id="kity_text_77" text-rendering="inherit" font-size="12" dy=".8em" y="339.7000000476837" x="472.5">父元素 display:flex;\njustify-content:center;align-items:center;</text></g></g></g></g></svg>