<svg id="kity_svg_6" xmlns="http://www.w3.org/2000/svg" xmlns:xlink="http://www.w3.org/1999/xlink" version="1.1" width="1337" height="384" style="background: rgb(251, 251, 251); visibility: visible;" viewBox="0 0 1337 384"><defs id="kity_defs_7"><linearGradient id="kity_linearGradient_17" x1="0" y1="0" x2="0" y2="1"><stop id="kity_stop_18" offset="0" stop-color="rgb(255, 255, 255)"></stop><stop id="kity_stop_19" offset="1" stop-color="rgb(204, 204, 204)"></stop></linearGradient><marker id="kity_marker_2" orient="auto" refX="6" refY="0" viewBox="-7 -7 14 14" markerWidth="7" markerHeight="7" markerUnits="userSpaceOnUse"><path id="kity_path_3" fill="rgb(115, 161, 191)" stroke="none" d="M6,0A6,6,0,1,1,-6,0A6,6,0,1,1,6,0"></path></marker></defs><g id="kity_g_8"><g id="minder1" text-rendering="optimize-speed"><g id="minder_connect_group1"><path id="kity_path_31" fill="none" stroke="rgb(115, 161, 191)" stroke-width="1" d="M76.5,157.5A68,100,0,0,1,144.5,57.5"></path><path id="kity_path_33" fill="none" stroke="rgb(115, 161, 191)" stroke-width="1" d="M243.5,57.5C263.5,57.5,263.5,31.5,283.5,31.5"></path><path id="kity_path_35" fill="none" stroke="rgb(115, 161, 191)" stroke-width="1" d="M401.5,31.5C421.5,31.5,421.5,31.5,441.5,31.5"></path><path id="kity_path_37" fill="none" stroke="rgb(115, 161, 191)" stroke-width="1" d="M243.5,57.5C263.5,57.5,263.5,83.5,283.5,83.5"></path><path id="kity_path_39" fill="none" stroke="rgb(115, 161, 191)" stroke-width="1" d="M413.5,83.5C433.5,83.5,433.5,83.5,453.5,83.5"></path><path id="kity_path_41" fill="none" stroke="rgb(115, 161, 191)" stroke-width="1" d="M76.5,157.5A68,105,0,0,0,144.5,262.5"></path><path id="kity_path_43" fill="none" stroke="rgb(115, 161, 191)" stroke-width="1" d="M243.5,262.5C263.5,262.5,263.5,171.5,283.5,171.5"></path><path id="kity_path_45" fill="none" stroke="rgb(115, 161, 191)" stroke-width="1" d="M341.5,171.5C361.5,171.5,361.5,145.5,381.5,145.5"></path><path id="kity_path_47" fill="none" stroke="rgb(115, 161, 191)" stroke-width="1" d="M450.5,145.5C470.5,145.5,470.5,145.5,490.5,145.5"></path><path id="kity_path_49" fill="none" stroke="rgb(115, 161, 191)" stroke-width="1" d="M341.5,171.5C361.5,171.5,361.5,197.5,381.5,197.5"></path><path id="kity_path_51" fill="none" stroke="rgb(115, 161, 191)" stroke-width="1" d="M451.5,197.5C471.5,197.5,471.5,197.5,491.5,197.5"></path><path id="kity_path_53" fill="none" stroke="rgb(115, 161, 191)" stroke-width="1" d="M243.5,262.5C263.5,262.5,263.5,275.5,283.5,275.5"></path><path id="kity_path_55" fill="none" stroke="rgb(115, 161, 191)" stroke-width="1" d="M353.5,275.5C373.5,275.5,373.5,275.5,393.5,275.5"></path><path id="kity_path_57" fill="none" stroke="rgb(115, 161, 191)" stroke-width="1" d="M905.5,275.5C925.5,275.5,925.5,249.5,945.5,249.5"></path><path id="kity_path_59" fill="none" stroke="rgb(115, 161, 191)" stroke-width="1" d="M1014.5,249.5C1034.5,249.5,1034.5,249.5,1054.5,249.5"></path><path id="kity_path_61" fill="none" stroke="rgb(115, 161, 191)" stroke-width="1" d="M905.5,275.5C925.5,275.5,925.5,301.5,945.5,301.5"></path><path id="kity_path_63" fill="none" stroke="rgb(115, 161, 191)" stroke-width="1" d="M1014.5,301.5C1034.5,301.5,1034.5,301.5,1054.5,301.5"></path><path id="kity_path_65" fill="none" stroke="rgb(115, 161, 191)" stroke-width="1" d="M243.5,262.5C263.5,262.5,263.5,353.5,283.5,353.5"></path><path id="kity_path_67" fill="none" stroke="rgb(115, 161, 191)" stroke-width="1" d="M372.5,353.5C392.5,353.5,392.5,353.5,412.5,353.5"></path></g><g id="minder_node1"><path id="node_outline1" fill="rgb(115, 161, 191)" stroke="rgb(115, 161, 191)" d="M25.5,137.5h102a5,5,0,0,1,5,5v30a5,5,0,0,1,-5,5h-102a5,5,0,0,1,-5,-5v-30a5,5,0,0,1,5,-5z" stroke-width="3"></path><g id="node_text1" fill="white"><text id="kity_text_22" text-rendering="inherit" font-size="16" dy=".8em" y="147.09999990463257" x="44.5">水平居中</text></g></g><g id="kity_g_12"><path id="kity_path_13" fill="none" stroke="none" d="M44.5,157.5h0v0h0z"></path></g><g id="kity_g_14"><path id="kity_path_15" fill="none" stroke="none" d="M44.5,157.5h0v0h0z"></path><path id="kity_path_16" fill="none" stroke="none"></path></g><g id="minder_node2"><g id="node_expander5" style="cursor: pointer;"><path id="kity_path_138" fill="white" stroke="gray" d="M145.5,57.5A6,6,0,1,1,133.5,57.5A6,6,0,1,1,145.5,57.5"></path><path id="kity_path_139" fill="none" stroke="gray" d="M135,57.5L144,57.5"></path></g><path id="node_outline6" fill="rgb(238, 243, 246)" stroke="rgb(115, 161, 191)" d="M149.5,44.5h91a3,3,0,0,1,3,3v20a3,3,0,0,1,-3,3h-91a3,3,0,0,1,-3,-3v-20a3,3,0,0,1,3,-3z" stroke-width="1"></path><g id="node_text6" fill="black"><text id="kity_text_77" text-rendering="inherit" font-size="14" dy=".8em" y="48.40000009536743" x="166.5">行内元素</text></g></g><g id="minder_node3"><g id="node_expander2" style="cursor: pointer;"><path id="kity_path_129" fill="white" stroke="gray" d="M283.5,31.5A6,6,0,1,1,271.5,31.5A6,6,0,1,1,283.5,31.5"></path><path id="kity_path_130" fill="none" stroke="gray" d="M273,31.5L282,31.5"></path></g><path id="node_outline3" fill="none" stroke="none" d="M288.5,20.5h108a5,5,0,0,1,5,5v12a5,5,0,0,1,-5,5h-108a5,5,0,0,1,-5,-5v-12a5,5,0,0,1,5,-5z"></path><g id="node_text3" fill="black"><text id="kity_text_71" text-rendering="inherit" font-size="12" dy=".8em" y="23.700000047683716" x="293.5">父元素为块级元素</text></g></g><g id="minder_node4"><g id="node_expander1" display="none" style="cursor: pointer;"><path id="kity_path_126" fill="white" stroke="gray" d="M441.5,31.5A6,6,0,1,1,429.5,31.5A6,6,0,1,1,441.5,31.5"></path><path id="kity_path_127" fill="none" stroke="gray"></path></g><path id="node_outline2" fill="none" stroke="none" d="M446.5,20.5h171a5,5,0,0,1,5,5v12a5,5,0,0,1,-5,5h-171a5,5,0,0,1,-5,-5v-12a5,5,0,0,1,5,-5z"></path><g id="node_text2" fill="black"><text id="kity_text_69" text-rendering="inherit" font-size="12" dy=".8em" y="23.700000047683716" x="451.5">设置父元素 text-align:center;</text></g></g><g id="minder_node5"><g id="node_expander4" style="cursor: pointer;"><path id="kity_path_135" fill="white" stroke="gray" d="M283.5,83.5A6,6,0,1,1,271.5,83.5A6,6,0,1,1,283.5,83.5"></path><path id="kity_path_136" fill="none" stroke="gray" d="M273,83.5L282,83.5"></path></g><path id="node_outline5" fill="none" stroke="none" d="M288.5,72.5h120a5,5,0,0,1,5,5v12a5,5,0,0,1,-5,5h-120a5,5,0,0,1,-5,-5v-12a5,5,0,0,1,5,-5z"></path><g id="node_text5" fill="black"><text id="kity_text_75" text-rendering="inherit" font-size="12" dy=".8em" y="75.70000004768372" x="293.5">父元素不为块级元素</text></g></g><g id="minder_node6"><g id="node_expander3" display="none" style="cursor: pointer;"><path id="kity_path_132" fill="white" stroke="gray" d="M453.5,83.5A6,6,0,1,1,441.5,83.5A6,6,0,1,1,453.5,83.5"></path><path id="kity_path_133" fill="none" stroke="gray"></path></g><path id="node_outline4" fill="none" stroke="none" d="M458.5,72.5h239a5,5,0,0,1,5,5v12a5,5,0,0,1,-5,5h-239a5,5,0,0,1,-5,-5v-12a5,5,0,0,1,5,-5z"></path><g id="node_text4" fill="black"><text id="kity_text_73" text-rendering="inherit" font-size="12" dy=".8em" y="75.70000004768372" x="463.5">设置父级 display:block; text-align:center;</text></g></g><g id="minder_node7"><g id="node_expander19" style="cursor: pointer;"><path id="kity_path_180" fill="white" stroke="gray" d="M145.5,262.5A6,6,0,1,1,133.5,262.5A6,6,0,1,1,145.5,262.5"></path><path id="kity_path_181" fill="none" stroke="gray" d="M135,262.5L144,262.5"></path></g><path id="node_outline20" fill="rgb(238, 243, 246)" stroke="rgb(115, 161, 191)" d="M149.5,249.5h91a3,3,0,0,1,3,3v20a3,3,0,0,1,-3,3h-91a3,3,0,0,1,-3,-3v-20a3,3,0,0,1,3,-3z" stroke-width="1"></path><g id="node_text20" fill="black"><text id="kity_text_105" text-rendering="inherit" font-size="14" dy=".8em" y="253.40000009536743" x="166.5">块级元素</text></g></g><g id="minder_node8"><g id="node_expander10" style="cursor: pointer;"><path id="kity_path_153" fill="white" stroke="gray" d="M283.5,171.5A6,6,0,1,1,271.5,171.5A6,6,0,1,1,283.5,171.5"></path><path id="kity_path_154" fill="none" stroke="gray" d="M273,171.5L282,171.5"></path></g><path id="node_outline11" fill="none" stroke="none" d="M288.5,160.5h48a5,5,0,0,1,5,5v12a5,5,0,0,1,-5,5h-48a5,5,0,0,1,-5,-5v-12a5,5,0,0,1,5,-5z"></path><g id="node_text11" fill="black"><text id="kity_text_87" text-rendering="inherit" font-size="12" dy=".8em" y="163.70000004768372" x="293.5">分宽度</text></g></g><g id="minder_node9"><g id="node_expander7" style="cursor: pointer;"><path id="kity_path_144" fill="white" stroke="gray" d="M381.5,145.5A6,6,0,1,1,369.5,145.5A6,6,0,1,1,381.5,145.5"></path><path id="kity_path_145" fill="none" stroke="gray" d="M371,145.5L380,145.5"></path></g><path id="node_outline8" fill="none" stroke="none" d="M386.5,134.5h59a5,5,0,0,1,5,5v12a5,5,0,0,1,-5,5h-59a5,5,0,0,1,-5,-5v-12a5,5,0,0,1,5,-5z"></path><g id="node_text8" fill="black"><text id="kity_text_81" text-rendering="inherit" font-size="12" dy=".8em" y="137.70000004768372" x="391.5">已知宽度</text></g></g><g id="minder_node10"><g id="node_expander6" display="none" style="cursor: pointer;"><path id="kity_path_141" fill="white" stroke="gray" d="M490.5,145.5A6,6,0,1,1,478.5,145.5A6,6,0,1,1,490.5,145.5"></path><path id="kity_path_142" fill="none" stroke="gray"></path></g><path id="node_outline7" fill="none" stroke="none" d="M495.5,134.5h172a5,5,0,0,1,5,5v12a5,5,0,0,1,-5,5h-172a5,5,0,0,1,-5,-5v-12a5,5,0,0,1,5,-5z"></path><g id="node_text7" fill="black"><text id="kity_text_79" text-rendering="inherit" font-size="12" dy=".8em" y="137.70000004768372" x="500.5">设置元素本身 margin: 0 auto;</text></g></g><g id="minder_node11"><g id="node_expander9" style="cursor: pointer;"><path id="kity_path_150" fill="white" stroke="gray" d="M381.5,197.5A6,6,0,1,1,369.5,197.5A6,6,0,1,1,381.5,197.5"></path><path id="kity_path_151" fill="none" stroke="gray" d="M371,197.5L380,197.5"></path></g><path id="node_outline10" fill="none" stroke="none" d="M386.5,186.5h60a5,5,0,0,1,5,5v12a5,5,0,0,1,-5,5h-60a5,5,0,0,1,-5,-5v-12a5,5,0,0,1,5,-5z"></path><g id="node_text10" fill="black"><text id="kity_text_85" text-rendering="inherit" font-size="12" dy=".8em" y="189.70000004768372" x="391.5">未知宽度</text></g></g><g id="minder_node12"><g id="node_expander8" display="none" style="cursor: pointer;"><path id="kity_path_147" fill="white" stroke="gray" d="M491.5,197.5A6,6,0,1,1,479.5,197.5A6,6,0,1,1,491.5,197.5"></path><path id="kity_path_148" fill="none" stroke="gray"></path></g><path id="node_outline9" fill="none" stroke="none" d="M496.5,186.5h422a5,5,0,0,1,5,5v12a5,5,0,0,1,-5,5h-422a5,5,0,0,1,-5,-5v-12a5,5,0,0,1,5,-5z"></path><g id="node_text9" fill="black"><text id="kity_text_83" text-rendering="inherit" font-size="12" dy=".8em" y="189.70000004768372" x="501.5">设置元素本身 display: inline或 inline-block;\n设置父元素 text-align:center;</text></g></g><g id="minder_node13"><g id="node_expander16" style="cursor: pointer;"><path id="kity_path_171" fill="white" stroke="gray" d="M283.5,275.5A6,6,0,1,1,271.5,275.5A6,6,0,1,1,283.5,275.5"></path><path id="kity_path_172" fill="none" stroke="gray" d="M273,275.5L282,275.5"></path></g><path id="node_outline17" fill="none" stroke="none" d="M288.5,264.5h60a5,5,0,0,1,5,5v12a5,5,0,0,1,-5,5h-60a5,5,0,0,1,-5,-5v-12a5,5,0,0,1,5,-5z"></path><g id="node_text17" fill="black"><text id="kity_text_99" text-rendering="inherit" font-size="12" dy=".8em" y="267.7000000476837" x="293.5">使用定位</text></g></g><g id="minder_node14"><g id="node_expander15" style="cursor: pointer;"><path id="kity_path_168" fill="white" stroke="gray" d="M393.5,275.5A6,6,0,1,1,381.5,275.5A6,6,0,1,1,393.5,275.5"></path><path id="kity_path_169" fill="none" stroke="gray" d="M383,275.5L392,275.5"></path></g><path id="node_outline16" fill="none" stroke="none" d="M398.5,264.5h502a5,5,0,0,1,5,5v12a5,5,0,0,1,-5,5h-502a5,5,0,0,1,-5,-5v-12a5,5,0,0,1,5,-5z"></path><g id="node_text16" fill="black"><text id="kity_text_97" text-rendering="inherit" font-size="12" dy=".8em" y="267.7000000476837" x="403.5">父元素设置相对定位 position：relative\n子元素设置绝对定位 position:absolute; left:50%;</text></g></g><g id="minder_node15"><g id="node_expander12" style="cursor: pointer;"><path id="kity_path_159" fill="white" stroke="gray" d="M945.5,249.5A6,6,0,1,1,933.5,249.5A6,6,0,1,1,945.5,249.5"></path><path id="kity_path_160" fill="none" stroke="gray" d="M935,249.5L944,249.5"></path></g><path id="node_outline13" fill="none" stroke="none" d="M950.5,238.5h59a5,5,0,0,1,5,5v12a5,5,0,0,1,-5,5h-59a5,5,0,0,1,-5,-5v-12a5,5,0,0,1,5,-5z"></path><g id="node_text13" fill="black"><text id="kity_text_91" text-rendering="inherit" font-size="12" dy=".8em" y="241.70000004768372" x="955.5">宽度已知</text></g></g><g id="minder_node16"><g id="node_expander11" display="none" style="cursor: pointer;"><path id="kity_path_156" fill="white" stroke="gray" d="M1054.5,249.5A6,6,0,1,1,1042.5,249.5A6,6,0,1,1,1054.5,249.5"></path><path id="kity_path_157" fill="none" stroke="gray"></path></g><path id="node_outline12" fill="none" stroke="none" d="M1059.5,238.5h253a5,5,0,0,1,5,5v12a5,5,0,0,1,-5,5h-253a5,5,0,0,1,-5,-5v-12a5,5,0,0,1,5,-5z"></path><g id="node_text12" fill="black"><text id="kity_text_89" text-rendering="inherit" font-size="12" dy=".8em" y="241.70000004768372" x="1064.5">子元素 margin-left: - 自身元素宽度的一半px</text></g></g><g id="minder_node17"><g id="node_expander14" style="cursor: pointer;"><path id="kity_path_165" fill="white" stroke="gray" d="M945.5,301.5A6,6,0,1,1,933.5,301.5A6,6,0,1,1,945.5,301.5"></path><path id="kity_path_166" fill="none" stroke="gray" d="M935,301.5L944,301.5"></path></g><path id="node_outline15" fill="none" stroke="none" d="M950.5,290.5h59a5,5,0,0,1,5,5v12a5,5,0,0,1,-5,5h-59a5,5,0,0,1,-5,-5v-12a5,5,0,0,1,5,-5z"></path><g id="node_text15" fill="black"><text id="kity_text_95" text-rendering="inherit" font-size="12" dy=".8em" y="293.7000000476837" x="955.5">宽度未知</text></g></g><g id="minder_node18"><g id="node_expander13" display="none" style="cursor: pointer;"><path id="kity_path_162" fill="white" stroke="gray" d="M1054.5,301.5A6,6,0,1,1,1042.5,301.5A6,6,0,1,1,1054.5,301.5"></path><path id="kity_path_163" fill="none" stroke="gray"></path></g><path id="node_outline14" fill="none" stroke="none" d="M1059.5,290.5h205a5,5,0,0,1,5,5v12a5,5,0,0,1,-5,5h-205a5,5,0,0,1,-5,-5v-12a5,5,0,0,1,5,-5z"></path><g id="node_text14" fill="black"><text id="kity_text_93" text-rendering="inherit" font-size="12" dy=".8em" y="293.7000000476837" x="1064.5">子元素 transform:translateX(-50%)</text></g></g><g id="minder_node19"><g id="node_expander18" style="cursor: pointer;"><path id="kity_path_177" fill="white" stroke="gray" d="M283.5,353.5A6,6,0,1,1,271.5,353.5A6,6,0,1,1,283.5,353.5"></path><path id="kity_path_178" fill="none" stroke="gray" d="M273,353.5L282,353.5"></path></g><path id="node_outline19" fill="none" stroke="none" d="M288.5,342.5h79a5,5,0,0,1,5,5v12a5,5,0,0,1,-5,5h-79a5,5,0,0,1,-5,-5v-12a5,5,0,0,1,5,-5z"></path><g id="node_text19" fill="black"><text id="kity_text_103" text-rendering="inherit" font-size="12" dy=".8em" y="345.7000000476837" x="293.5">使用flex布局</text></g></g><g id="minder_node20"><g id="node_expander17" display="none" style="cursor: pointer;"><path id="kity_path_174" fill="white" stroke="gray" d="M412.5,353.5A6,6,0,1,1,400.5,353.5A6,6,0,1,1,412.5,353.5"></path><path id="kity_path_175" fill="none" stroke="gray"></path></g><path id="node_outline18" fill="none" stroke="none" d="M417.5,342.5h270a5,5,0,0,1,5,5v12a5,5,0,0,1,-5,5h-270a5,5,0,0,1,-5,-5v-12a5,5,0,0,1,5,-5z"></path><g id="node_text18" fill="black"><text id="kity_text_101" text-rendering="inherit" font-size="12" dy=".8em" y="345.7000000476837" x="422.5">父元素设置 display:flex; justify-content:center;</text></g></g></g></g></svg>